<svg xmlns="http://www.w3.org/2000/svg" width="32.628" height="192.082"><g transform="translate(-477.972 -616.321) translate(-318.214 -100.138)"><polygon points="808.516,746.077 796.532,745.965 796.186,783.298 828.468,783.6 828.814,746.268 817.468,746.162 817.535,739.135 819.451,739.152 819.66,716.573 807.007,716.459 806.8,739.038 808.58,739.054" fill="#ffd800"/><g fill="#c6c6c6"><path d="M810.289 876.604l-.809-.006.855-93.229-11.03-.102-.856 93.226-.813-.007c-.195-.002-.387.082-.518.229-.129.147-.189.346-.164.54l3.006 22.608c.043.332.322.582.656.591h.012l.434.004.563 7.353c.021.256.186.48.424.578l.236.049c.17.005.34-.055.471-.172l2.627-2.343c.107-.095.184-.222.214-.362l1.106-5.053.146.001c.338.003.629-.243.679-.579l3.427-22.544c.03-.193-.027-.393-.154-.543-.127-.15-.354-.223-.512-.239z"/><path d="M826.119 876.988c-.127-.151-.328-.229-.512-.24l-.813-.007.857-93.156-11.033-.104-.854 93.156-.808-.007c-.198-.001-.387.083-.52.229-.129.146-.189.345-.164.541l3.006 22.604c.045.333.322.583.656.591h.014l.465.006 1.92 7.428c.075.295.338.504.643.512h.012c.308.002.578-.202.66-.499l2.057-7.394.463.004c.338.002.627-.244.678-.578l3.43-22.545c.028-.193-.028-.391-.157-.541z"/><path d="M816.816 757.805c-1.195-.856-2.654-1.373-4.238-1.389-4.091-.039-7.434 3.245-7.471 7.335-.016 1.353.344 2.618.967 3.714l10.742-9.66z"/><path d="M812.439 771.22c4.09.036 7.437-3.249 7.471-7.334.012-1.231-.283-2.396-.809-3.426l-10.629 9.558c1.145.745 2.503 1.189 3.967 1.202z"/></g></g></svg>