<?xml version="1.0" encoding="UTF-8" standalone="no"?>
<!-- Created with Inkscape (http://www.inkscape.org/) -->

<svg
   xmlns:dc="http://purl.org/dc/elements/1.1/"
   xmlns:cc="http://creativecommons.org/ns#"
   xmlns:rdf="http://www.w3.org/1999/02/22-rdf-syntax-ns#"
   xmlns:svg="http://www.w3.org/2000/svg"
   xmlns="http://www.w3.org/2000/svg"
   xmlns:sodipodi="http://sodipodi.sourceforge.net/DTD/sodipodi-0.dtd"
   xmlns:inkscape="http://www.inkscape.org/namespaces/inkscape"
   width="32.627998"
   height="192.08202"
   id="svg6154"
   version="1.1"
   inkscape:version="0.48.3.1 r9886"
   sodipodi:docname="New document 33">
  <defs
     id="defs6156" />
  <sodipodi:namedview
     id="base"
     pagecolor="#ffffff"
     bordercolor="#666666"
     borderopacity="1.0"
     inkscape:pageopacity="0.0"
     inkscape:pageshadow="2"
     inkscape:zoom="0.35"
     inkscape:cx="-102.97171"
     inkscape:cy="276.04101"
     inkscape:document-units="px"
     inkscape:current-layer="layer1"
     showgrid="false"
     fit-margin-top="0"
     fit-margin-left="0"
     fit-margin-right="0"
     fit-margin-bottom="0"
     inkscape:window-width="1615"
     inkscape:window-height="1026"
     inkscape:window-x="65"
     inkscape:window-y="24"
     inkscape:window-maximized="1" />
  <metadata
     id="metadata6159">
    <rdf:RDF>
      <cc:Work
         rdf:about="">
        <dc:format>image/svg+xml</dc:format>
        <dc:type
           rdf:resource="http://purl.org/dc/dcmitype/StillImage" />
        <dc:title></dc:title>
      </cc:Work>
    </rdf:RDF>
  </metadata>
  <g
     inkscape:label="Layer 1"
     inkscape:groupmode="layer"
     id="layer1"
     transform="translate(-477.97171,-616.32118)">
    <g
       transform="translate(-318.21429,-100.13782)"
       id="compass_1_">
      <polygon
         style="fill:#ffd800"
         points="808.516,746.077 796.532,745.965 796.186,783.298 828.468,783.6 828.814,746.268 817.468,746.162 817.535,739.135 819.451,739.152 819.66,716.573 807.007,716.459 806.8,739.038 808.58,739.054 "
         id="polygon4131" />
      <g
         id="g4133">
        <path
           style="fill:#c6c6c6"
           inkscape:connector-curvature="0"
           d="m 810.289,876.604 -0.809,-0.006 0.855,-93.229 -11.03,-0.102 -0.856,93.226 -0.813,-0.007 c -0.195,-0.002 -0.387,0.082 -0.518,0.229 -0.129,0.147 -0.189,0.346 -0.164,0.54 l 3.006,22.608 c 0.043,0.332 0.322,0.582 0.656,0.591 0.004,0 0.008,0 0.012,0 l 0.434,0.004 0.563,7.353 c 0.021,0.256 0.186,0.48 0.424,0.578 0.076,0.031 0.156,0.047 0.236,0.049 0.17,0.005 0.34,-0.055 0.471,-0.172 l 2.627,-2.343 c 0.107,-0.095 0.184,-0.222 0.214,-0.362 l 1.106,-5.053 0.146,10e-4 c 0.338,0.003 0.629,-0.243 0.679,-0.579 l 3.427,-22.544 c 0.03,-0.193 -0.027,-0.393 -0.154,-0.543 -0.127,-0.15 -0.354,-0.223 -0.512,-0.239 z"
           id="path4135" />
        <path
           style="fill:#c6c6c6"
           inkscape:connector-curvature="0"
           d="m 826.119,876.988 c -0.127,-0.151 -0.328,-0.229 -0.512,-0.24 l -0.813,-0.007 0.857,-93.156 -11.033,-0.104 -0.854,93.156 -0.808,-0.007 c -0.198,-10e-4 -0.387,0.083 -0.52,0.229 -0.129,0.146 -0.189,0.345 -0.164,0.541 l 3.006,22.604 c 0.045,0.333 0.322,0.583 0.656,0.591 0.004,0 0.008,0 0.014,0 l 0.465,0.006 1.92,7.428 c 0.075,0.295 0.338,0.504 0.643,0.512 0.004,0 0.008,0 0.012,0 0.308,0.002 0.578,-0.202 0.66,-0.499 l 2.057,-7.394 0.463,0.004 c 0.338,0.002 0.627,-0.244 0.678,-0.578 l 3.43,-22.545 c 0.028,-0.193 -0.028,-0.391 -0.157,-0.541 z"
           id="path4137" />
        <path
           style="fill:#c6c6c6"
           inkscape:connector-curvature="0"
           d="m 816.816,757.805 c -1.195,-0.856 -2.654,-1.373 -4.238,-1.389 -4.091,-0.039 -7.434,3.245 -7.471,7.335 -0.016,1.353 0.344,2.618 0.967,3.714 l 10.742,-9.66 z"
           id="path4139" />
        <path
           style="fill:#c6c6c6"
           inkscape:connector-curvature="0"
           d="m 812.439,771.22 c 4.09,0.036 7.437,-3.249 7.471,-7.334 0.012,-1.231 -0.283,-2.396 -0.809,-3.426 l -10.629,9.558 c 1.145,0.745 2.503,1.189 3.967,1.202 z"
           id="path4141" />
      </g>
    </g>
  </g>
</svg>
